HIERARCHY
ROOT Hips
{
	OFFSET 0.00000 0.00000 0.00000
	CHANNELS 6 Xposition Yposition Zposition Yrotation Zrotation Xrotation 
	JOINT Lumbar
	{
		OFFSET 0 0 0
		CHANNELS 3 Zrotation Xrotation Yrotation
		JOINT Neck
		{
			OFFSET 0.00 0.2701 0.00
			CHANNELS 3 Zrotation Xrotation Yrotation
			End Site
			{
				OFFSET 0.00 0.1379 0.00
			}
		}
		JOINT RightShoulder
		{
			OFFSET 0.0119 0.2289 0.1181
			CHANNELS 3 Zrotation Xrotation Yrotation
			JOINT RightElbow
			{
				OFFSET 0.00 -0.1475 0.00
				CHANNELS 2 Zrotation Yrotation
				JOINT RightWrist
				{
					OFFSET 0.00 -0.1605 0.00
					CHANNELS 2 Zrotation Xrotation
					End Site
					{
						OFFSET 0.0040 -0.1068 0.0006
					}
				}
			}
		}
		JOINT LeftShoulder
		{
			OFFSET 0.0119 0.2289 -0.1181
			CHANNELS 3 Zrotation Xrotation Yrotation
			JOINT LeftElbow
			{
				OFFSET 0.00 -0.1475 0.00
				CHANNELS 2 Zrotation Yrotation
				JOINT LeftWrist
				{
					OFFSET 0.00 -0.1605 0.00
					CHANNELS 2 Zrotation Xrotation
					End Site
					{
						OFFSET 0.0040 -0.1068 -0.0006
					}
				}
			}
		}
	}
	JOINT RightHip
	{
		OFFSET 0.0316 -0.0424 0.0458
		CHANNELS 3 Zrotation Xrotation Yrotation
		JOINT RightKnee
		{
			OFFSET 0.00 -0.2438 0.00
			CHANNELS 1 Zrotation
			JOINT RightAnkle
			{
				OFFSET 0.00 -0.2449 0.00
				CHANNELS 3 Zrotation Xrotation Yrotation
				End Site
				{
					OFFSET 0.1237 -0.0542 0.0051
				}
			}
		}
	}
	JOINT LeftHip
	{
		OFFSET 0.0316 -0.0424 -0.0458
		CHANNELS 3 Zrotation Xrotation Yrotation
		JOINT LeftKnee
		{
			OFFSET 0.00 -0.2438 0.00
			CHANNELS 1 Zrotation
			JOINT LeftAnkle
			{
				OFFSET 0.00 -0.2449 0.00
				CHANNELS 3 Zrotation Xrotation Yrotation
				End Site
				{
					OFFSET 0.1237 -0.0542 -0.0051
				}
			}
		}
	}
}
MOTION
Frames: 22
Frame Time: 0.02
-0.00287 -0.0003 -0.00601 15.51072 -20.49126 -5.42463 48.4001 3.93602 -1.01603 -8.56351 -0.55752 -1.00837 -24.4362 -11.18697 -9.70188 31.89902 141.31497 20.04265 9.76999 -29.12001 15.16256 -2.08328 47.70009 -142.59039 28.62904 -7.48716 36.41295 -1.83031 -4.03156 -21.00188 -8.16062 -3.72137 -4.09685 36.07139 10.65006 5.29477 -26.71806 -8.88962 3.89898 4.24679
-0.00196 -0.0003 -0.00426 15.41263 -20.53523 -5.39992 48.31112 3.87218 -1.58133 -8.78241 -0.67297 -1.01106 -24.52128 -11.02976 -9.12346 32.31685 136.32697 18.83785 8.84406 -29.44946 15.39114 -2.18957 47.35858 -138.26473 27.27509 -6.82953 36.40257 -1.85466 -5.1503 -21.07641 -8.0833 -3.60228 -4.03825 36.03618 10.92628 5.6314 -26.70605 -8.87329 3.86358 4.22943
-0.00106 -0.00029 -0.00252 15.31485 -20.57918 -5.37529 48.22214 3.80848 -2.14509 -9.001 -0.78799 -1.01375 -24.60646 -10.87229 -8.54786 32.73415 131.35972 17.63772 7.92215 -29.77834 15.61924 -2.29462 47.01886 -133.95231 25.92532 -6.17391 36.39232 -1.8785 -6.26552 -21.15071 -8.0062 -3.48357 -3.97982 36.00125 11.20159 5.96496 -26.69401 -8.85726 3.82841 4.2122
-0.00015 -0.00029 -0.00077 15.21705 -20.62303 -5.35066 48.13339 3.74482 -2.70869 -9.21929 -0.90308 -1.01643 -24.69132 -10.71541 -7.97144 33.15082 126.38838 16.43687 6.99936 -30.10686 15.84719 -2.40054 46.67853 -129.63983 24.57551 -5.51829 36.382 -1.9027 -7.38078 -21.22501 -7.92912 -3.36485 -3.9214 35.96618 11.47692 6.3001 -26.68202 -8.84103 3.79314 4.19491
0.00076 -0.00028 0.00097 15.11897 -20.66686 -5.32596 48.0447 3.68106 -3.27372 -9.43776 -1.0186 -1.01911 -24.77599 -10.55914 -7.39169 33.56776 121.39314 15.23076 6.07186 -30.43578 16.07544 -2.50776 46.33614 -125.3145 23.22162 -4.86073 36.3715 -1.92756 -8.49965 -21.29952 -7.85183 -3.24575 -3.86279 35.93079 11.75324 6.6394 -26.67011 -8.82435 3.75757 4.17745
0.00166 -0.00028 0.00272 15.02185 -20.71105 -5.30148 47.95511 3.61751 -3.83477 -9.65659 -1.13257 -1.02181 -24.86224 -10.39924 -6.82477 33.98578 116.48429 14.04312 5.1616 -30.76453 16.30316 -2.60807 46.00204 -121.02968 21.88064 -4.20925 36.36175 -1.94928 -9.60714 -21.37338 -7.77511 -3.12788 -3.80477 35.8968 12.02647 6.96108 -26.65778 -8.80969 3.72323 4.16068
0.00257 -0.00028 0.00445 14.92282 -20.75447 -5.27658 47.86751 3.55357 -4.40325 -9.87442 -1.24956 -1.02446 -24.94512 -10.24655 -6.23302 34.40112 111.41048 12.82032 4.21839 -31.09333 16.53193 -2.7229 45.65167 -116.66735 20.51496 -3.54615 36.35055 -1.97728 -10.73612 -21.44848 -7.69734 -3.00767 -3.74563 35.86003 12.3054 7.31694 -26.6463 -8.79107 3.68653 4.14257
0.00347 -0.00027 0.0062 14.82572 -20.79859 -5.25205 47.77793 3.49003 -4.96481 -10.09327 -1.36374 -1.02717 -25.03129 -10.08773 -5.66352 34.81903 106.48246 11.62868 3.30421 -31.42192 16.75932 -2.82304 45.31624 -112.37779 19.17244 -2.89396 36.34063 -1.99952 -11.84562 -21.52242 -7.62052 -2.88959 -3.68751 35.82585 12.57947 7.64294 -26.63405 -8.77596 3.65188 4.12564
0.00438 -0.00027 0.00798 14.73025 -20.84364 -5.22805 47.68642 3.42678 -5.51844 -10.3131 -1.47462 -1.0299 -25.12087 -9.91914 -5.12373 35.24 101.75666 10.47981 2.43072 -31.75111 16.98679 -2.91027 44.99928 -108.17024 17.85612 -2.25407 36.33249 -2.0145 -12.93043 -21.59503 -7.5449 -2.77417 -3.63066 35.79473 12.84612 7.92563 -26.62079 -8.76575 3.62022 4.11042
0.00528 -0.00026 0.00962 14.62319 -20.88359 -5.20122 47.60748 3.36125 -6.1193 -10.52652 -1.60487 -1.03237 -25.18901 -9.79992 -4.42055 35.64313 95.93949 9.09891 1.33879 -32.07945 17.21911 -3.08694 44.57668 -103.46986 16.38269 -1.54025 36.31478 -2.0706 -14.1547 -21.67559 -7.46251 -2.64359 -3.56658 35.74567 13.15102 8.43703 -26.61311 -8.72916 3.57281 4.08616
0.00619 -0.00026 0.01154 14.54204 -20.93411 -5.18022 47.50114 3.30094 -6.61946 -10.75391 -1.69404 -1.03548 -25.30349 -9.581 -4.05721 36.08396 92.3786 8.19857 0.69765 -32.40787 17.43778 -3.0653 44.37651 -99.82297 15.24492 -0.98451 36.31684 -2.04043 -15.08629 -21.73918 -7.39434 -2.54494 -3.51771 35.73467 13.37807 8.47919 -26.59381 -8.74702 3.55769 4.08044
0.00715 -0.00026 0.01423 14.52112 -21.01529 -5.17643 47.32534 3.25171 -6.84912 -11.01673 -1.67114 -1.03964 -25.53754 -9.04921 -4.67742 36.6296 95.46072 8.70616 1.3905 -32.75104 17.64861 -2.57577 44.79684 -98.97322 15.00051 -0.84799 36.37695 -1.76712 -15.19399 -21.75721 -7.366 -2.53528 -3.51124 35.82794 13.36504 7.10913 -26.54175 -8.92618 3.64007 4.1307
0.0081 -0.00027 0.0172 14.52847 -21.10665 -5.17815 47.12063 3.20841 -6.97643 -11.29421 -1.6069 -1.0446 -25.81964 -8.42495 -5.63038 37.21309 100.73139 9.68147 2.51938 -33.09171 17.84155 -1.87524 45.43874 -99.19274 15.09684 -0.87194 36.45613 -1.40854 -15.01141 -21.75798 -7.35182 -2.55747 -3.51992 35.95974 13.27814 5.28963 -26.4786 -9.158 3.75331 4.19871
0.00905 -0.00028 0.02004 14.52971 -21.19243 -5.17669 46.92589 3.16435 -7.14696 -11.56679 -1.56113 -1.04964 -26.08455 -7.86819 -6.39655 37.77814 104.69721 10.38226 3.38367 -33.42392 18.0217 -1.21848 45.97258 -98.9917 15.0572 -0.83321 36.52422 -1.09293 -14.97554 -21.76606 -7.33059 -2.56413 -3.5212 36.07367 13.24308 3.75885 -26.42054 -9.35772 3.84652 4.25522
0.01003 -0.00029 0.02289 14.50166 -21.28279 -5.17855 46.74593 3.11169 -7.33182 -11.83164 -1.51653 -1.05274 -26.32945 -7.20217 -7.30964 38.34765 109.94993 11.3385 4.52374 -33.79622 18.28481 -0.77186 46.53768 -98.54119 14.94451 -0.75553 36.60296 -0.75861 -14.87764 -21.77657 -7.31186 -2.57516 -3.52462 36.18807 13.13323 1.87607 -26.36049 -9.59126 3.9648 4.32604
0.01094 -0.00029 0.02578 14.54245 -21.36533 -5.17424 46.52651 3.07891 -7.46179 -12.11646 -1.45981 -1.06014 -26.62802 -6.74368 -8.00053 38.9179 113.07523 11.8824 5.19973 -34.08497 18.37758 0.15058 47.09056 -98.83318 15.05722 -0.79201 36.66356 -0.44397 -14.83888 -21.77768 -7.29145 -2.58481 -3.52727 36.31201 13.1585 0.61302 -26.30415 -9.76781 4.03864 4.37155
0.01171 -0.00027 0.02874 14.75673 -21.42997 -5.15628 46.22066 3.09483 -7.47185 -12.44914 -1.37844 -1.07861 -27.05757 -6.86608 -7.9538 39.47098 109.48705 11.09572 4.42588 -34.13932 17.94765 2.43666 47.55156 -101.17811 15.77487 -1.14773 36.67369 -0.197 -15.04505 -21.75892 -7.26155 -2.58137 -3.52325 36.44243 13.60161 1.23306 -26.24373 -9.76557 3.97808 4.34027
0.0124 -0.00025 0.03171 15.04108 -21.4854 -5.13097 45.87309 3.13151 -7.4288 -12.80189 -1.28637 -1.10148 -27.54028 -7.20374 -7.68058 40.02483 103.73824 9.89244 3.1813 -34.11086 17.35806 5.17533 47.9934 -104.18786 16.69688 -1.60528 36.66432 0.02574 -15.31807 -21.73085 -7.22978 -2.57579 -3.51812 36.58413 14.17783 2.48118 -26.19179 -9.70576 3.87254 4.2834
0.01309 -0.00023 0.03465 15.29976 -21.54079 -5.10606 45.53467 3.16172 -7.40602 -13.14815 -1.20028 -1.12276 -28.00248 -7.45202 -7.53795 40.58552 99.1769 8.93031 2.19257 -34.12264 16.87808 7.64021 48.44636 -106.71423 17.47989 -1.98697 36.66076 0.2547 -15.55461 -21.70589 -7.19967 -2.57207 -3.51401 36.72616 14.67624 3.40096 -26.14566 -9.67787 3.79021 4.23988
0.01393 -0.0002 0.03769 15.53351 -21.61372 -5.09408 45.23724 3.17934 -7.39678 -13.48471 -1.10876 -1.14244 -28.4518 -7.65965 -7.28705 41.11933 93.82422 7.76494 1.04215 -34.12175 16.23877 10.39994 48.89636 -110.02594 18.46265 -2.49657 36.66979 0.50712 -15.81001 -21.68537 -7.16636 -2.56543 -3.50809 36.84212 15.24711 4.48498 -26.0535 -9.62742 3.69706 4.18961
0.01443 -0.0002 0.04051 15.83528 -21.64863 -5.05292 44.84418 3.22838 -7.34704 -13.84494 -1.02563 -1.16639 -28.93889 -8.00651 -7.20742 41.70611 89.57807 6.91887 0.11094 -34.1296 15.8965 12.65036 49.34576 -111.86743 19.0821 -2.76507 36.64894 0.70346 -16.04173 -21.65323 -7.13945 -2.56433 -3.50567 37.02004 15.69723 5.38346 -26.06544 -9.60971 3.61563 4.14723
0.014 -0.00033 0.04276 16.30904 -21.57413 -4.93648 44.20389 3.35619 -7.20778 -14.27461 -0.97624 -1.20178 -29.52535 -8.66782 -7.62179 42.46079 88.90206 7.04397 -0.10174 -34.16576 16.38982 13.38167 49.79048 -109.29393 18.57123 -2.31432 36.54019 0.75323 -16.22856 -21.59477 -7.12743 -2.5754 -3.51131 37.31952 15.80221 5.60723 -26.30929 -9.69487 3.57466 4.13136
